<?xml version="1.0" encoding="UTF-8" standalone="no"?>
<svg width="142px" height="47px" viewBox="0 0 142 47" version="1.1" xmlns="http://www.w3.org/2000/svg" xmlns:xlink="http://www.w3.org/1999/xlink">
    <!-- Generator: Sketch 39.1 (31720) - http://www.bohemiancoding.com/sketch -->
    <title>Group 5</title>
    <desc>Created with Sketch.</desc>
    <defs></defs>
    <g id="layout" stroke="none" stroke-width="1" fill="none" fill-rule="evenodd">
        <g id="how_it_work_mobile" transform="translate(-15.000000, -30.000000)" fill="#FFFFFF">
            <g id="Group-5" transform="translate(15.000000, 30.000000)">
                <path d="M5.46844898,39.6223257 L5.46844898,30.3571146 L7.43616327,30.3571146 C10.0665442,30.3571146 11.857,32.4628664 11.857,34.989478 C11.857,37.5165739 10.0665442,39.6223257 7.43616327,39.6223257 L5.46844898,39.6223257 L5.46844898,39.6223257 Z M1.93197279,42.8579577 L7.43616327,42.8579577 C11.857,42.8579577 15.4156939,39.3336808 15.4156939,34.989478 C15.4156939,30.6452752 11.857,27.1209984 7.43616327,27.1209984 L1.93197279,27.1209984 L1.93197279,42.8579577 L1.93197279,42.8579577 Z M17.4717959,42.8579577 L20.8314966,42.8579577 L20.8314966,31.7756397 L17.4717959,31.7756397 L17.4717959,42.8579577 Z M24.1472449,46.9362778 L33.6965034,46.9362778 L33.6965034,31.7756397 L30.3590204,31.7756397 L30.3590204,32.4405885 C29.7176054,31.9088232 28.8337279,31.5983846 27.9271497,31.5983846 C24.5891837,31.5983846 22.7103401,34.2141081 22.7103401,36.9179747 C22.7103401,39.6223257 24.5891837,42.2375648 27.9271497,42.2375648 C28.8337279,42.2375648 29.7176054,41.9494042 30.3590204,41.4176389 L30.3590204,43.6783679 L24.1472449,43.6783679 L24.1472449,46.9362778 L24.1472449,46.9362778 Z M28.3695714,39.1787037 C26.8882313,39.1787037 26.0705238,38.0483392 26.0705238,36.9179747 C26.0705238,35.7876103 26.8882313,34.6572458 28.3695714,34.6572458 C29.1872789,34.6572458 29.8726463,34.989478 30.3590204,35.5880772 L30.3590204,38.2478723 C29.8726463,38.8464714 29.1872789,39.1787037 28.3695714,39.1787037 L28.3695714,39.1787037 Z M36.3268844,42.8579577 L39.687068,42.8579577 L39.687068,31.7756397 L36.3268844,31.7756397 L36.3268844,42.8579577 Z M41.4543401,34.7013174 L42.8912449,34.7013174 L42.8912449,39.4445863 C42.8912449,41.5503381 44.1953265,42.8579577 46.2731633,42.8579577 L49.3237483,42.8579577 L49.3237483,39.7995808 L47.5110748,39.7995808 C46.6049796,39.7995808 46.2292109,39.4227927 46.2292109,38.4914769 L46.2292109,34.7013174 L48.992415,34.7013174 L49.7217347,31.7756397 L46.2292109,31.7756397 L46.2292109,28.4508959 L42.8912449,30.11351 L42.8912449,31.7756397 L40.7250204,31.7756397 L41.4543401,34.7013174 L41.4543401,34.7013174 Z M58.5856259,42.8579577 L61.9235918,42.8579577 L61.9235918,31.7756397 L58.5856259,31.7756397 L58.5856259,32.4405885 C57.9446939,31.9088232 57.0603333,31.5983846 56.1542381,31.5983846 C52.8829252,31.5983846 50.8050884,34.2804576 50.8050884,37.3170408 C50.8050884,40.3536241 52.8829252,43.0356971 56.1542381,43.0356971 C57.0603333,43.0356971 57.9446939,42.7475365 58.5856259,42.2152869 L58.5856259,42.8579577 L58.5856259,42.8579577 Z M56.7067823,39.9768359 C55.1153197,39.9768359 54.1647891,38.7796375 54.1647891,37.3170408 C54.1647891,35.8539598 55.1153197,34.6572458 56.7067823,34.6572458 C57.5249728,34.6572458 58.1214694,34.989478 58.5856259,35.5880772 L58.5856259,39.0677982 C58.1214694,39.6663973 57.5249728,39.9768359 56.7067823,39.9768359 L56.7067823,39.9768359 Z M64.5322381,42.8579577 L67.8697211,42.8579577 L67.8697211,27.1209984 L64.5322381,27.1209984 L64.5322381,42.8579577 Z M75.3623946,36.6961637 L81.6403401,36.6961637 L81.6403401,39.3559588 L75.3623946,39.3559588 L75.3623946,42.8579577 L85.1772993,42.8579577 L85.1772993,33.2827923 L78.8993537,33.2827923 L78.8993537,30.6229973 L85.1772993,30.6229973 L85.1772993,27.1209984 L75.3623946,27.1209984 L75.3623946,36.6961637 L75.3623946,36.6961637 Z M92.9138844,43.0356971 C94.9472857,43.0356971 96.7382245,41.9934759 97.7549252,40.4199736 L95.1023265,38.5360329 C94.6599048,39.3559588 93.8866327,39.910002 92.9138844,39.910002 C91.5431497,39.910002 90.526449,38.8464714 90.526449,37.3170408 C90.526449,35.7876103 91.5431497,34.7235954 92.9138844,34.7235954 C93.8866327,34.7235954 94.6599048,35.2776386 95.1023265,36.0980488 L97.7549252,34.2141081 C96.7382245,32.6401215 94.9472857,31.5983846 92.9138844,31.5983846 C89.7309592,31.5983846 87.1667483,34.1695521 87.1667483,37.3170408 C87.1667483,40.4645296 89.7309592,43.0356971 92.9138844,43.0356971 L92.9138844,43.0356971 Z M106.707204,42.8579577 L110.04517,42.8579577 L110.04517,31.7756397 L102.684354,31.7756397 L102.684354,27.1209984 L99.3463878,27.1209984 L99.3463878,42.8579577 L102.684354,42.8579577 L102.684354,35.1003835 L106.707204,35.1003835 L106.707204,42.8579577 L106.707204,42.8579577 Z M117.759537,39.910002 C116.389286,39.910002 115.372585,38.8464714 115.372585,37.3170408 C115.372585,35.7876103 116.389286,34.7235954 117.759537,34.7235954 C119.130272,34.7235954 120.146973,35.7876103 120.146973,37.3170408 C120.146973,38.8464714 119.130272,39.910002 117.759537,39.910002 L117.759537,39.910002 Z M117.759537,43.0356971 C120.942946,43.0356971 123.507156,40.4645296 123.507156,37.3170408 C123.507156,34.1695521 120.942946,31.5983846 117.759537,31.5983846 C114.576612,31.5983846 112.012401,34.1695521 112.012401,37.3170408 C112.012401,40.4645296 114.576612,43.0356971 117.759537,43.0356971 L117.759537,43.0356971 Z M130.579626,39.910002 C129.209374,39.910002 128.19219,38.8464714 128.19219,37.3170408 C128.19219,35.7876103 129.209374,34.7235954 130.579626,34.7235954 C131.949878,34.7235954 132.967061,35.7876103 132.967061,37.3170408 C132.967061,38.8464714 131.949878,39.910002 130.579626,39.910002 L130.579626,39.910002 Z M130.579626,43.0356971 C133.762551,43.0356971 136.326762,40.4645296 136.326762,37.3170408 C136.326762,34.1695521 133.762551,31.5983846 130.579626,31.5983846 C127.396701,31.5983846 124.83249,34.1695521 124.83249,37.3170408 C124.83249,40.4645296 127.396701,43.0356971 130.579626,43.0356971 L130.579626,43.0356971 Z M138.294476,42.8579577 L141.631959,42.8579577 L141.631959,27.1209984 L138.294476,27.1209984 L138.294476,42.8579577 Z" id="Fill-4"></path>
                <path d="M6.36585034,15.9146987 L9.96897959,15.9146987 L9.96897959,6.47223254 L7.55980952,3.67973831 L13.704932,3.67973831 L13.704932,0.177255097 L0,0.177255097 L6.36585034,7.60259701 L6.36585034,15.9146987 L6.36585034,15.9146987 Z M22.790034,15.9146987 L26.128,15.9146987 L26.128,4.83189644 L18.7667007,4.83189644 L18.7667007,0.177255097 L15.4292177,0.177255097 L15.4292177,15.9146987 L18.7667007,15.9146987 L18.7667007,8.15664026 L22.790034,8.15664026 L22.790034,15.9146987 L22.790034,15.9146987 Z M33.7307959,16.0919538 C35.9192381,16.0919538 37.7096939,15.0279389 38.7268776,13.4321587 L36.0742789,11.6368455 C35.6318571,12.4567714 34.8803197,13.0330926 33.7090612,13.0330926 C32.7140952,13.0330926 31.453966,12.4567714 31.2994082,10.9718968 L39.0582109,10.9718968 C39.1026463,10.6391802 39.124381,10.306948 39.124381,9.99650942 C39.124381,6.4945105 36.6046054,4.65464135 33.797449,4.65464135 C30.3933129,4.65464135 28.0942653,7.11490334 28.0942653,10.3732976 C28.0942653,13.7866689 30.813034,16.0919538 33.7307959,16.0919538 L33.7307959,16.0919538 Z M33.5984558,7.33671436 C34.6813265,7.33671436 35.6540748,7.84668599 35.8308503,9.02112208 L31.3216259,9.02112208 C31.6312245,7.69122456 32.802483,7.33671436 33.5984558,7.33671436 L33.5984558,7.33671436 Z M56.0127211,15.9146987 L59.5496803,15.9146987 L59.5496803,0.177255097 L56.0127211,0.177255097 L56.0127211,7.9571072 L46.1099116,0 L46.1099116,15.9146987 L49.6463878,15.9146987 L49.6463878,7.51396946 L56.0127211,12.6340265 L56.0127211,15.9146987 L56.0127211,15.9146987 Z M67.3307007,16.0919538 C69.5186599,16.0919538 71.3091156,15.0279389 72.3262993,13.4321587 L69.6737007,11.6368455 C69.2312789,12.4567714 68.4797415,13.0330926 67.308483,13.0330926 C66.313517,13.0330926 65.0533878,12.4567714 64.8988299,10.9718968 L72.6576327,10.9718968 C72.702068,10.6391802 72.7238027,10.306948 72.7238027,9.99650942 C72.7238027,6.4945105 70.2040272,4.65464135 67.3968707,4.65464135 C63.9927347,4.65464135 61.6936871,7.11490334 61.6936871,10.3732976 C61.6936871,13.7866689 64.4124558,16.0919538 67.3307007,16.0919538 L67.3307007,16.0919538 Z M67.1978776,7.33671436 C68.2807483,7.33671436 69.2534966,7.84668599 69.4302721,9.02112208 L64.9210476,9.02112208 C65.2306463,7.69122456 66.4019048,7.33671436 67.1978776,7.33671436 L67.1978776,7.33671436 Z M78.2946463,15.9146987 L87.6004762,15.9146987 L91.5354218,9.90788187 L91.5354218,4.83189644 L88.1974558,4.83189644 L88.1974558,8.91021657 L85.766068,12.5899549 L84.5943265,12.5899549 L84.5943265,4.83189644 L81.2563605,4.83189644 L81.2563605,12.5899549 L80.1073197,12.5899549 L77.6976667,8.91021657 L77.6976667,4.83189644 L74.3597007,4.83189644 L74.3597007,9.90788187 L78.2946463,15.9146987 L78.2946463,15.9146987 Z" id="Fill-5"></path>
            </g>
        </g>
    </g>
</svg>